HIERARCHY
ROOT Hips
{
    OFFSET 0.0 0.0 0.0
    CHANNELS 6 Xposition Yposition Zposition Xrotation Yrotation Zrotation
    JOINT Spine
    {
        OFFSET 0.0 25.335010047670025 0.0
        CHANNELS 3 Xrotation Yrotation Zrotation
        JOINT LeftUpperArm
        {
            OFFSET 16.372229540129258 25.524455400237052 0.0
            CHANNELS 3 Xrotation Yrotation Zrotation
            JOINT LeftLowerArm
            {
                OFFSET 31.828304997414094 0.0 0.0
                CHANNELS 3 Xrotation Yrotation Zrotation
                End Site
                {
                OFFSET 6.934956540289116 0.0 0.0
                }
            }
        }
        JOINT RightUpperArm
        {
            OFFSET -16.372229540129258 25.524455400237052 0.0
            CHANNELS 3 Xrotation Yrotation Zrotation
            JOINT RightLowerArm
            {
                OFFSET -31.828304997414094 0.0 0.0
                CHANNELS 3 Xrotation Yrotation Zrotation
                End Site
                {
                OFFSET 6.934956540289116 0.0 0.0
                }
            }
        }
    }
    JOINT LeftUpperLeg
    {
        OFFSET 8.996378831507265 0.0 0.0
        CHANNELS 3 Xrotation Yrotation Zrotation
    }
    JOINT RightUpperLeg
    {
        OFFSET -8.996378831507265 0.0 0.0
        CHANNELS 3 Xrotation Yrotation Zrotation
    }
}
MOTION
Frames: 19
Frame Time: 0.03333333333333333
-0.1450874195056616 -0.17367399995001542 -0.09269338241295974 15.340840569984636 10.018472433882977 2.087473986922026 -0.0 -0.0 -0.0 171.44581914840145 10.093989910304016 -2.239144004621308 124.07090782132674 4.53301254333927 3.0596158204789305 176.64338409379633 -5.8475100410804455 -159.61813051988597 110.16519633334707 19.79124688611478 7.088058333424618 7.2917574395792775 84.8317224397964 114.74857127630423 -174.85670605726233 55.99238139049161 -72.7238623552814
-0.14497516651003572 -0.17369892845083645 -0.0926233681097791 15.31859980006214 10.00825836874712 2.0950994522100754 -0.0 -0.0 -0.0 171.1515038301667 10.07139209442468 -2.2861389787254582 124.4193162161526 4.511725018725657 3.0852978005780196 176.7480491945822 -5.8985464208362535 -159.60989114539734 110.92241724327495 19.619105352721274 7.314883632874962 7.121462330370749 84.84093848423827 114.5306822815721 -174.80111612828776 55.99475074643683 -72.69466291989322
-0.14478471947812593 -0.1736844996677042 -0.09260129513592683 15.307499208930356 10.002421172966725 2.1055450142860477 -0.0 -0.0 -0.0 170.6047161106009 10.009374512710052 -2.3790575137995162 125.04387033741556 4.485587181312946 3.1396043562719647 176.92045545190345 -5.97346729584917 -159.6059153483122 111.04293968425465 19.502632522143248 7.31901129372075 6.838000686590067 84.8557673438385 114.11055580740877 -174.70661827438903 56.030975439390055 -72.6441462828294
-0.1446412759460296 -0.1736502148432121 -0.09262231112963307 15.317130987847424 9.9993276841997 2.1194684375816837 -0.0 -0.0 -0.0 170.43752841221212 9.99707550261433 -2.3986272595587006 125.1991768436665 4.496348567207565 3.16524980180015 176.96943111481332 -6.034417827987201 -159.58064334764524 110.42443673698995 19.513325717647025 7.0903403918404315 6.6348272758483855 84.86931203151883 113.87083844793504 -174.66765575905856 56.0139168628789 -72.612681652093
-0.1445808851935358 -0.1736714669983456 -0.09265393234064967 15.331606706702434 9.99957999639972 2.1396482377768447 -0.0 -0.0 -0.0 170.09788374356995 9.973709034078091 -2.450481982962301 125.53129971253188 4.503959736156409 3.209683744948573 176.9659955237895 -6.0823768835598555 -159.487790160958 109.09743542810004 19.768973796768794 6.679208069980971 6.345460956416761 84.87747085747883 113.53482912371386 -174.61072295426476 56.02279215967237 -72.55855130862882
-0.14447723851330696 -0.17344109499841204 -0.09294976513721447 15.441689043760075 9.995971165625539 2.172249437676923 -0.0 -0.0 -0.0 168.58132271296353 9.841245844730118 -2.7226575716208705 126.93609279568967 4.433940376939149 3.3263978089114636 176.31981886138607 -5.949367208726346 -159.34147379442018 108.16776623684962 20.11010896237869 6.43744214602188 5.958723243033434 84.86257080071144 113.25522099580591 -174.6865637872194 55.98664042750036 -72.53946458011575
-0.14444098045809758 -0.17322044585006097 -0.09321311736152615 15.527831499488887 10.004582672508024 2.199435980995015 -0.0 -0.0 -0.0 167.61019378979057 9.746103931584125 -2.916533628284408 127.82400669884557 4.343993887932979 3.3653577376037656 175.5132387064906 -5.867322189825134 -159.22635552045068 102.14610188073273 20.942547637400324 4.3989614765363445 5.6502335646124076 84.84711657194944 113.02985748646876 -174.74408493295581 55.99953231950726 -72.51455940852333
-0.14441827544205585 -0.17312750238582367 -0.09347425960013207 15.593491302429463 10.039023637628407 2.231171093868385 -0.0 -0.0 -0.0 166.66749963099636 9.707076755848462 -3.106196171715355 128.66334305788791 4.225417272717106 3.373792974595871 175.12375974231333 -5.911345918203938 -159.26372577290152 96.11762849989593 21.510634150265176 2.2505799711447008 5.26952323101819 84.7960528363928 112.7190872174818 -174.7446567100536 56.13376007064801 -72.44782708531581
-0.1444799743731983 -0.1730746406101865 -0.09359141707188715 15.622782772276796 10.089224540835787 2.259182846825823 -0.0 -0.0 -0.0 166.1089415349438 9.710513671999628 -3.2202232755575526 129.14233540673223 4.142585324190366 3.3648627153871096 174.4387817843679 -5.823665556323422 -159.27352708217637 89.74317288496592 22.20333701038742 -0.09705416549886402 4.841080385654367 84.72083972102817 112.3343604069605 -174.69145470431715 56.3328587590004 -72.34226522662206
-0.14455559658578632 -0.1730439368470396 -0.0936343496498563 15.635132318012348 10.117836429933922 2.2800398929440213 -0.0 -0.0 -0.0 165.55447132293898 9.687986856005056 -3.3394963006437 129.63490716193255 4.055030936796778 3.3521434591248194 173.7388081806363 -5.607284118593475 -159.27733774396552 85.38188801923835 22.8338891518729 -1.795411205715414 4.406878546148847 84.64398205358599 111.95205488091933 -174.6723979786938 56.46182564828563 -72.26845983957577
-0.14469754827996392 -0.17289954056563028 -0.0938569248242746 15.674737943391138 10.179424013364121 2.3117182880150358 -0.0 -0.0 -0.0 165.07005447346262 9.722031884984935 -3.4182692852832273 130.00468134296298 4.010217884891912 3.358930251858113 172.34921062565087 -5.3559907219096745 -159.37586948097933 81.90566161866298 23.53184165510474 -3.2499174969733264 3.860958633147841 84.535479695468 111.46384377433081 -174.6901405770595 56.606331062803854 -72.18832824770236
-0.14478817430617194 -0.1728776077742032 -0.09399650271715808 15.70338716379078 10.198483253822216 2.3301558222126815 -0.0 -0.0 -0.0 164.08389491457712 9.675333097862463 -3.575702901736598 130.80829076619318 3.95185556429736 3.405427761718904 171.86325845880734 -5.122733969833033 -159.81760179579055 81.25003519953592 23.64780375577139 -3.53278640647538 3.515683483387508 84.49382525425212 111.1646320155547 -174.67700585062568 56.714286227366436 -72.12421750067692
-0.14481897055953638 -0.17293741180080363 -0.0940712229927027 15.702521896494815 10.201991827365843 2.3437266747320376 -0.0 -0.0 -0.0 163.716791180618 9.643267712412827 -3.628675229036939 131.13424313611375 3.9252763457225357 3.4216157004779997 171.5935360398734 -4.939426979840471 -160.21705794205863 77.4979412213773 23.490246624089174 -5.050732346109675 3.211128944625515 84.47377344844469 110.86133787277318 -174.63913883934578 56.74134724110051 -72.08572345937047
-0.14490268262893996 -0.17284073198463124 -0.0943398891824839 15.710778348595777 10.235418842154594 2.3620408316667363 -0.0 -0.0 -0.0 163.25533929637692 9.62292634821306 -3.698214093667804 131.53740400679888 3.8862224039658986 3.436000485404195 170.98123613528486 -4.834875755570707 -160.55848209959797 72.60236510017953 23.125935710762747 -7.015753443080576 2.6577311467017593 84.36625146206796 110.28550470646115 -174.5817882737924 56.8267997730906 -72.02016025496947
-0.14498276476330074 -0.1728599878770409 -0.09457928346022976 15.65355903801536 10.28690397889419 2.372647347937048 -0.0 -0.0 -0.0 160.78078249636624 9.19225245916944 -4.342654162381459 134.07265531049097 3.605902694968611 3.4844212373163623 171.0202666316957 -4.773189696891512 -160.75749971200563 64.45060887049608 22.168473646064736 -10.224907614630018 2.37262602164587 84.27813617436013 109.94678938333657 -174.32749671536504 57.33049894254151 -71.75928885374047
-0.14496905192122503 -0.17322064596105813 -0.09479185407524676 15.631085256792398 10.296017444211351 2.3804476838218935 -0.0 -0.0 -0.0 159.93489810298735 9.045780891655276 -4.752865210075728 134.95732191776762 3.5564661600299936 3.544363826817004 171.44279402317247 -4.797073734457667 -161.12557296590845 61.363566373046396 21.55981207277216 -11.346048650633785 2.188765840287248 84.24739321353725 109.74248833064135 -174.11157043447105 57.79734986459322 -71.51201500901342
-0.1450566019924516 -0.17372578583331494 -0.0947618877749709 15.462146242908826 10.25650790744205 2.348523523644735 -0.0 -0.0 -0.0 161.21720703004394 9.034542501270321 -4.779919565656401 133.65425175989722 3.743637644823647 3.564636177323041 172.62119349239154 -4.847404518864412 -161.68969692918265 58.10349101369434 20.853583539052693 -12.492023330246377 2.231679606087606 84.17873636347956 109.66553410840072 -173.86078299229567 58.002788854353234 -71.38822409376661
-0.1452186959637731 -0.17390515028704823 -0.09490796575499018 15.319294515871817 10.19219304374354 2.3114115849010957 -0.0 -0.0 -0.0 161.455457129327 8.91017777352771 -4.9647798425794045 133.6084866416875 3.855725326686965 3.665068091834537 173.71134533248681 -4.88470568331363 -162.0063101171087 53.321102480837524 20.020873128925913 -14.30517590195763 2.395088094018337 84.13513331767831 109.7886095084327 -173.69136972906142 58.153124617191246 -71.31530810658687
-0.1454908004308152 -0.17455442944908642 -0.09437337549219056 14.937961042404417 10.15205404294335 2.2368713881525344 -0.0 -0.0 -0.0 160.12125316108435 8.476059791885747 -5.274390157984317 135.47098112365634 3.7650952600838177 3.8190889722509604 175.48184650840113 -4.938535561643141 -162.51243039313152 41.72877370685284 17.087227100847052 -18.234530081856445 2.624130570363563 83.99332983339069 109.73553766274871 -173.22872522106823 58.453757354518565 -71.20814600996118
